<?xml version="1.0" encoding="UTF-8"?>
<svg width="92px" height="92px" viewBox="0 0 92 92" version="1.1" xmlns="http://www.w3.org/2000/svg" xmlns:xlink="http://www.w3.org/1999/xlink">
    <!-- Generator: sketchtool 52.3 (67297) - http://www.bohemiancoding.com/sketch -->
    <title>F36005AF-E7E1-495D-84D8-C3C1F6B4F79B</title>
    <desc>Created with sketchtool.</desc>
    <g id="pages" stroke="none" stroke-width="1" fill="none" fill-rule="evenodd">
        <g id="Medication-question-(when-taking)" transform="translate(-604.000000, -599.000000)" fill="#0DA4C5" fill-rule="nonzero" stroke="#0DA4C5" stroke-width="1.5">
            <g id="answer" transform="translate(504.000000, 518.000000)">
                <g id="icon" transform="translate(68.000000, 49.000000)">
                    <path d="M78,51.492 C63.383,51.492 51.492,63.384 51.492,78 C51.492,92.616 63.383,104.508 78,104.508 C92.617,104.508 104.508,92.617 104.508,78 C104.508,63.383 92.617,51.492 78,51.492 Z M78,99.249 C66.283,99.249 56.751,89.717 56.751,78 C56.751,66.283 66.283,56.751 78,56.751 C89.717,56.751 99.249,66.283 99.249,78 C99.249,89.717 89.717,99.249 78,99.249 Z M78,109.088 C79.453,109.088 80.629,110.266 80.629,111.718 L80.629,120.371 C80.629,121.823 79.453,123 78,123 C76.547,123 75.371,121.823 75.371,120.37 L75.371,111.717 C75.371,110.265 76.547,109.088 78,109.088 Z M75.371,35.629 C75.371,34.177 76.547,33 78,33 C79.453,33 80.629,34.177 80.629,35.629 L80.629,44.291 C80.629,45.743 79.452,46.92 78,46.92 C76.548,46.92 75.371,45.743 75.371,44.291 L75.371,35.629 Z M93.539,51.089 C92.282,50.363 91.851,48.755 92.576,47.496 L96.907,39.992 C97.632,38.736 99.238,38.303 100.499,39.029 C101.757,39.755 102.188,41.363 101.462,42.621 L97.131,50.125 C96.644,50.969 95.76,51.441 94.851,51.441 C94.406,51.441 93.954,51.328 93.539,51.089 Z M56.812,117.323 C56.366,117.323 55.914,117.209 55.499,116.97 C54.241,116.244 53.811,114.635 54.538,113.378 L58.869,105.883 C59.595,104.626 61.201,104.194 62.461,104.922 C63.719,105.648 64.149,107.257 63.422,108.514 L59.091,116.009 C58.604,116.852 57.72,117.323 56.812,117.323 Z M107.201,63.767 C106.291,63.767 105.407,63.295 104.92,62.45 C104.196,61.192 104.627,59.584 105.885,58.859 L113.38,54.537 C114.638,53.811 116.246,54.244 116.972,55.502 C117.696,56.76 117.265,58.368 116.007,59.093 L108.512,63.415 C108.098,63.654 107.646,63.767 107.201,63.767 Z M39.03,100.5 C38.304,99.242 38.735,97.634 39.993,96.909 L47.498,92.578 C48.756,91.851 50.364,92.283 51.09,93.541 C51.816,94.799 51.385,96.407 50.127,97.133 L42.622,101.464 C42.208,101.702 41.755,101.816 41.31,101.816 C40.401,101.816 39.517,101.344 39.03,100.5 Z M120.37,75.371 C121.823,75.371 123,76.548 123,78 C123,79.452 121.823,80.63 120.37,80.629 L111.717,80.629 C110.265,80.629 109.088,79.452 109.088,78 C109.088,76.548 110.264,75.371 111.717,75.371 L120.37,75.371 Z M46.921,78 C46.921,79.452 45.745,80.63 44.291,80.629 L35.629,80.629 C34.177,80.629 33,79.452 33,78 C33,76.548 34.177,75.371 35.63,75.371 L44.292,75.371 C45.744,75.371 46.921,76.548 46.921,78 Z M116.007,96.908 C117.264,97.633 117.696,99.241 116.972,100.499 C116.485,101.344 115.6,101.816 114.691,101.816 C114.246,101.816 113.794,101.703 113.38,101.464 L105.885,97.142 C104.627,96.417 104.195,94.809 104.92,93.551 C105.645,92.293 107.252,91.86 108.512,92.586 L116.007,96.908 Z M39.03,55.501 C39.755,54.244 41.359,53.811 42.622,54.537 L50.127,58.868 C51.385,59.594 51.816,61.202 51.09,62.46 C50.603,63.304 49.719,63.776 48.81,63.776 C48.365,63.776 47.913,63.663 47.498,63.424 L39.993,59.093 C38.735,58.367 38.304,56.759 39.03,55.501 Z M97.142,105.884 L101.464,113.379 C102.188,114.637 101.757,116.246 100.499,116.971 C100.085,117.21 99.633,117.323 99.188,117.323 C98.279,117.323 97.394,116.851 96.907,116.007 L92.585,108.512 C91.861,107.254 92.292,105.645 93.55,104.92 C94.808,104.192 96.416,104.626 97.142,105.884 Z M58.869,50.126 L54.538,42.623 C53.812,41.365 54.243,39.757 55.501,39.031 C56.759,38.304 58.367,38.737 59.093,39.994 L63.424,47.498 C64.15,48.756 63.719,50.364 62.461,51.09 C62.047,51.328 61.594,51.442 61.149,51.442 C60.24,51.442 59.356,50.97 58.869,50.126 Z" id="afternoon-icon"></path>
                </g>
            </g>
        </g>
    </g>
</svg>