<?xml version="1.0" encoding="UTF-8"?>
<svg width="79px" height="74px" viewBox="0 0 79 74" version="1.1" xmlns="http://www.w3.org/2000/svg" xmlns:xlink="http://www.w3.org/1999/xlink">
    <!-- Generator: sketchtool 52.2 (67145) - http://www.bohemiancoding.com/sketch -->
    <title>9BD6D1C7-ADA8-46A2-A933-ADC4051D1C4F</title>
    <desc>Created with sketchtool.</desc>
    <g id="pages" stroke="none" stroke-width="1" fill="none" fill-rule="evenodd">
        <g id="Welcome-screen-(new-user)" transform="translate(-356.000000, -1275.000000)" fill="#0DA4C5">
            <g id="claim" transform="translate(200.000000, 1183.000000)">
                <path d="M160.262321,131.752887 C158.725005,128.983436 157.549797,126.041723 156.815704,122.964187 C155.703042,118.263408 156.009189,115.252126 156.137573,114.400752 C157.352283,101.411496 166.678231,92 178.351302,92 C185.060191,92 191.183122,95.0940997 195.314454,100.530307 C199.518208,95.1702928 205.92095,92 212.64959,92 C224.322661,92 233.648609,101.414809 234.860028,114.400752 C234.991704,115.252126 235.29785,118.263408 234.181897,122.964187 C233.451095,126.041723 232.275887,128.983436 230.738571,131.752887 L213.831382,131.752887 L210.039115,107.89453 C209.78893,106.317665 208.459004,105.148268 206.875601,105.108515 C205.200024,105.04226 203.899725,106.171904 203.570535,107.728892 L199.663051,126.227236 C199.047466,125.286418 198.112567,124.749754 196.86823,124.739816 C195.696314,124.759692 194.623155,125.402364 194.047073,126.429313 L190.350271,133.048169 L184.454482,118.392605 C183.963989,117.170203 182.792073,116.355269 181.481897,116.325454 C180.263895,116.265825 178.960303,117.054257 178.413848,118.253469 L172.244831,131.752887 L160.262321,131.752887 Z M211.02438,138.378369 L226.002517,138.378369 C225.113704,139.365565 224.188681,140.32626 223.184652,141.230638 L195.499788,166 L167.824799,141.237264 C166.817478,140.329573 165.889163,139.365565 165.00035,138.378369 L174.352633,138.378369 C175.639766,138.378369 176.805098,137.623064 177.344969,136.450354 L181.209657,127.986301 L186.81576,141.919688 C187.293085,143.099024 188.395871,143.900707 189.65996,143.980213 C189.72909,143.986839 189.79822,143.986839 189.86735,143.986839 C191.052433,143.986839 192.155219,143.34748 192.737885,142.297341 L197.017353,134.634972 L198.334112,136.831319 C199.025411,137.994091 200.355338,138.613573 201.698432,138.384994 C203.028359,138.159728 204.091642,137.136091 204.371454,135.807682 L206.333425,126.518757 L207.775276,135.589041 C208.028752,137.19572 209.408058,138.378369 211.02438,138.378369 Z" id="better-health-icon"></path>
            </g>
        </g>
    </g>
</svg>