<?xml version="1.0" encoding="UTF-8"?>
<svg width="53px" height="53px" viewBox="0 0 53 53" version="1.1" xmlns="http://www.w3.org/2000/svg" xmlns:xlink="http://www.w3.org/1999/xlink">
    <!-- Generator: sketchtool 52.3 (67297) - http://www.bohemiancoding.com/sketch -->
    <title>35DB45A8-617D-4EF0-B3A9-CD70E9779ED1</title>
    <desc>Created with sketchtool.</desc>
    <g id="pages" stroke="none" stroke-width="1" fill="none" fill-rule="evenodd">
        <g id="Drop-down-&gt;-Contact-Us" transform="translate(-509.000000, -362.000000)" fill="#FFFFFF">
            <g id="overlay">
                <g id="button" transform="translate(483.000000, 340.000000)">
                    <path d="M79,48.5 C79,33.8552632 67.1447368,22 52.5,22 C37.8552632,22 26,33.8552632 26,48.5 C26,63.1447368 37.8552632,75 52.5,75 C67.1447368,75 79,63.1447368 79,48.5 Z M63.7575188,51.6879699 C60.768797,48.6992481 58.1785714,52.1860902 56.3853383,53.9793233 C52.5996241,51.9868421 48.7142857,48.5 47.0206767,44.6146617 C52.5,39.6334586 51.4041353,39.0357143 45.2274436,33.1578947 C42.1390977,30.1691729 39.6484962,33.7556391 37.7556391,35.6484962 C36.7593985,36.6447368 36.2612782,37.8402256 36.1616541,39.1353383 C35.1654135,48.1015038 49.4116541,64.3402256 60.768797,65.037594 C64.156015,65.2368421 65.4511278,63.343985 67.8421053,60.8533835 C69.3364662,59.3590226 69.3364662,57.2669173 67.7424812,55.7725564 L63.7575188,51.6879699 Z" id="call-button-icon"></path>
                </g>
            </g>
        </g>
    </g>
</svg>