<?xml version="1.0" encoding="UTF-8"?>
<svg width="30px" height="30px" viewBox="0 0 30 30" version="1.1" xmlns="http://www.w3.org/2000/svg" xmlns:xlink="http://www.w3.org/1999/xlink">
    <!-- Generator: sketchtool 52.2 (67145) - http://www.bohemiancoding.com/sketch -->
    <title>2C5B209E-F056-4ED5-9E07-6ACC3F3D731A</title>
    <desc>Created with sketchtool.</desc>
    <g id="pages" stroke="none" stroke-width="1" fill="none" fill-rule="evenodd">
        <g id="Help-drop-down" transform="translate(-1079.000000, -137.000000)" fill="#0E849E" fill-rule="nonzero">
            <path d="M1105.78571,137 L1082.21429,137 C1080.43906,137 1079,138.439063 1079,140.214286 L1079,163.785714 C1079,165.560937 1080.43906,167 1082.21429,167 L1105.78571,167 C1107.56094,167 1109,165.560937 1109,163.785714 L1109,140.214286 C1109,138.439063 1107.56094,137 1105.78571,137 Z M1085.29464,162.714286 C1084.82368,162.714286 1084.42029,162.387969 1084.31589,161.935692 L1083.31156,157.583013 C1083.20226,157.109354 1083.44782,156.625396 1083.89462,156.433906 L1088.58199,154.425045 C1088.99333,154.248765 1089.47168,154.365882 1089.75507,154.712254 L1091.83076,157.249196 C1095.10826,155.711496 1097.7435,153.039955 1099.24913,149.830893 L1096.71212,147.755201 C1096.36577,147.471804 1096.24866,146.993469 1096.42491,146.582121 L1098.43384,141.894754 C1098.62533,141.447952 1099.10929,141.202392 1099.58295,141.311696 L1103.93563,142.316027 C1104.3914,142.4211 1104.7143,142.826911 1104.71429,143.294643 C1104.71429,154.028482 1096.01261,162.714286 1085.29464,162.714286 Z" id="contact-us-header-icon"></path>
        </g>
    </g>
</svg>