<?xml version="1.0" encoding="UTF-8"?>
<svg width="35px" height="36px" viewBox="0 0 35 36" version="1.1" xmlns="http://www.w3.org/2000/svg" xmlns:xlink="http://www.w3.org/1999/xlink">
    <!-- Generator: sketchtool 52.3 (67297) - http://www.bohemiancoding.com/sketch -->
    <title>B383C5DB-32AF-4EAB-A95E-9E10823A958D</title>
    <desc>Created with sketchtool.</desc>
    <g id="pages" stroke="none" stroke-width="1" fill="none" fill-rule="evenodd">
        <g id="Account-Setup-(Provider-and-Pharmacy-Selection)" transform="translate(-259.000000, -371.000000)" fill="#0DA4C5" fill-rule="nonzero">
            <g id="input" transform="translate(200.000000, 329.000000)">
                <g id="icon" transform="translate(33.000000, 18.000000)">
                    <path d="M34.6756169,33.373037 C34.0627196,33.4786361 33.7845396,34.7534247 34.0537064,36.2206117 C34.2958336,37.5705997 34.9197925,38.6141904 35.4945886,38.6917897 C36.2267058,40.6137726 37.3849014,42.478156 38.8163607,43.8453438 C39.6271385,44.6189369 40.5251805,45.2297315 41.4830373,45.6009282 C42.1401812,45.8565259 42.8272325,45.9969246 43.5335392,45.9969246 C44.2390266,45.9969246 44.9252585,45.8569259 45.5848605,45.6009282 C46.5754926,45.2165316 47.5046711,44.5765373 48.3367528,43.7625445 C49.7337981,42.4025566 50.8612669,40.564973 51.5806837,38.6769898 C52.1321274,38.5189912 52.7106106,37.5098002 52.9465925,36.2206117 C53.2018297,34.8222241 52.961751,33.604235 52.4086686,33.3986368 C52.4271047,33.0566398 52.4406245,32.7126429 52.4406245,32.358646 C52.4254659,27.2906912 49.3814641,24.3447174 44.5827571,24.0299202 C40.3998152,23.7563226 37.2468356,25.3791082 35.8116892,28.0774842 C35.3294832,28.9846761 35.0521226,30.120266 34.9451934,31.351855 C34.7845946,31.9946493 34.6915948,32.6618433 34.6915948,33.3526372 L34.7067534,33.3526372 C34.7067534,33.3590371 34.7063437,33.3634371 34.705934,33.369837 C34.695282,33.370637 34.6850398,33.372237 34.6756169,33.373037 Z M35.6293768,34.9170233 C35.690011,34.7442248 35.769491,34.609826 35.8723234,34.5382266 C35.8895304,34.5298267 35.9071471,34.5274267 35.9194378,34.5186268 C35.9489355,34.502227 35.980072,34.4842271 36.013257,34.4802272 L36.0144861,34.4802272 C36.0439838,34.4750272 36.0738912,34.4746272 36.1037986,34.4774272 C36.189424,34.4858271 36.2766881,34.5266267 36.3631328,34.5942261 C36.3631328,34.5942261 36.3631328,34.5942261 36.3635425,34.5942261 C36.3635425,34.5898262 36.3639522,34.5858262 36.3647716,34.5814263 C36.365591,34.5770263 36.3660007,34.5730263 36.3660007,34.5686264 C36.3975468,34.2594291 36.7482421,32.0054492 38.6377355,31.3294552 C38.6594491,31.3210553 38.6864887,31.3178553 38.7094314,31.3098554 C38.8347967,31.2690557 38.9618009,31.2302561 39.100686,31.2034563 C39.2694786,31.1714566 39.4497425,31.1514568 39.6398389,31.1442569 C39.8192835,31.1370569 40.0069218,31.1402569 40.2060315,31.1582567 C40.2060315,31.1582567 41.5715305,31.6486524 43.2766632,31.6542523 C44.0456526,31.6570523 44.8842894,31.5618531 45.6979351,31.2778557 C45.8429656,31.2746557 45.9851283,31.2726557 46.1236038,31.2726557 C46.2555242,31.2726557 46.3845767,31.2742557 46.5078936,31.2786557 C47.5907061,31.3194553 48.333885,31.8662504 49.1102489,32.2194473 L49.1118876,32.2194473 C49.1110682,32.2158473 49.1102489,32.2126473 49.1102489,32.2094474 C49.0758348,31.8650504 48.8095359,31.5142536 48.8222363,31.2790557 C48.8222363,31.2790557 48.8222363,31.2790557 48.8222363,31.2782557 C48.8296107,31.2802556 48.8357561,31.2838556 48.8431305,31.2862556 C48.959073,31.3210553 49.0647732,31.3686549 49.1663765,31.4214544 C49.7264237,32.0050492 50.2680347,32.9806405 50.6986197,34.5754263 C50.6986197,34.5834262 50.6986197,34.5886262 50.7002584,34.5950261 C50.7018972,34.5950261 50.7018972,34.5942261 50.7027166,34.5926262 C50.7027166,34.5910262 50.7027166,34.5926262 50.7059941,34.5910262 L50.7059941,34.5926262 L50.7059941,34.5942261 L50.7109104,34.5862262 C50.7141879,34.5838262 50.7174654,34.5834262 50.7203333,34.5810263 C50.7674477,34.5466266 50.8141524,34.5218268 50.8612669,34.503427 C50.9005972,34.4886271 50.9386984,34.4806272 50.9772093,34.4774272 C51.0022005,34.4754272 51.0267819,34.4734272 51.051773,34.4778272 C51.079632,34.4826271 51.1070813,34.4918271 51.1341209,34.503427 C51.4917808,34.6666255 51.6454148,35.4822182 51.4741641,36.41341 C51.3430631,37.1258036 51.0579184,37.7125984 50.756386,37.9657961 C50.6957518,38.0149957 50.6330691,38.0525954 50.5732543,38.0737952 C50.563012,38.0769951 50.5539988,38.0769951 50.544576,38.0793951 L50.4646863,38.0877951 C50.4638669,38.0877951 50.4630475,38.0877951 50.4622281,38.0877951 C50.4556731,38.0877951 50.4487083,38.0877951 50.4413339,38.0877951 C50.4294529,38.0877951 50.4179815,38.089795 50.4069199,38.090995 C50.4011842,38.091795 50.3958582,38.093395 50.3901226,38.092595 C50.3307174,38.0837951 50.2766382,38.0533954 50.2262463,38.0105957 C50.2205106,38.0057958 50.2143653,38.0029958 50.2086296,37.9981958 C50.2086296,37.9981958 50.2086296,37.9981958 50.2086296,38.0005958 C49.5461597,40.0153779 48.2826737,42.02336 46.6852897,43.2425492 C46.218652,43.599746 45.7216972,43.8861434 45.2042578,44.0901416 C45.1956543,44.0941416 45.1858218,44.0965416 45.1763989,44.0993415 L44.586854,44.27494 C44.570876,44.2789399 44.5557175,44.2833399 44.5397396,44.2873399 C44.4803344,44.3005397 44.4262552,44.3257395 44.3660307,44.3357394 C44.3475946,44.3397394 44.3291585,44.3405394 44.3099031,44.3429394 L44.0800666,44.3657392 C44.0608111,44.3673392 44.0423751,44.3681391 44.023939,44.3705391 C43.8633402,44.388939 43.7031512,44.4165387 43.5396846,44.4173387 C43.5364071,44.4177387 43.5335392,44.4181387 43.5310811,44.4181387 C42.4245065,44.4181387 41.3781565,43.9893425 40.4416036,43.2909487 C38.8188188,42.0777595 37.5332094,40.0509776 36.8596779,38.0125957 C36.8584489,38.0085958 36.8568101,38.0049958 36.855581,38.0013958 L36.8547617,38.0013958 C36.7990437,38.0505954 36.7396386,38.0825951 36.6753171,38.094995 C36.6749074,38.094995 36.6744977,38.094995 36.6740881,38.094995 C36.6466388,38.097795 36.6183701,38.0993949 36.5905112,38.094995 C36.4786656,38.0849951 36.3627231,38.0233956 36.252926,37.9153966 C35.9694201,37.639799 35.712544,37.083404 35.5904562,36.4162099 C35.5822624,36.3726103 35.5789849,36.3278107 35.5716104,36.2850111 C35.5777558,35.8170153 35.5970112,35.3638193 35.6293768,34.9170233 Z M43.4892926,60 C36.5765817,60 28.0312533,59.0744082 26.4072394,56.0752349 C26.2695834,55.8204372 26.1794514,55.5456397 26.1077556,55.2620422 C25.9573991,54.6512476 25.9598572,53.9996534 26.1438083,53.3792589 C26.8177495,51.1136791 27.6871131,49.6024926 28.5712257,48.5745017 C30.2906975,46.5737195 32.0662969,46.4197209 32.5870138,46.3001219 C32.7033659,46.2737222 32.8242247,46.2553223 32.9434447,46.2337225 C32.6771457,46.6561188 32.4927849,47.1041148 32.4141243,47.5365109 C32.1724068,47.6773097 31.9765746,47.8985077 31.8614516,48.1613054 C31.5463994,48.316104 31.2452768,48.5281021 30.9650483,48.7916998 C30.4553931,49.2712955 29.9940814,49.9344896 29.6310955,50.7088827 C29.5462895,50.8884811 29.5290825,51.0876793 29.5802938,51.2784776 C29.2320567,52.1700697 29.0403215,53.1032614 29.0403215,53.9140542 C29.0403215,54.8380459 29.088665,55.3828411 29.3533252,55.7976374 C29.5721,56.1408344 29.9166499,56.3516325 30.4062302,56.4416317 C30.5414282,56.5428308 30.7057141,56.5980303 30.8757358,56.5980303 L31.7328087,56.5980303 C32.1613451,56.5980303 32.5104016,56.2568333 32.5104016,55.8084373 L32.505895,55.7612377 C32.4653356,55.3756412 32.1322571,55.0784438 31.732399,55.0784438 L30.8753261,55.0784438 C30.7802778,55.0784438 30.6852296,55.0956437 30.5967364,55.1288434 C30.5287278,55.1124435 30.504556,55.0980436 30.5033269,55.0980436 C30.3947589,54.9256452 30.3947589,54.1908517 30.3947589,53.9140542 C30.3947589,53.2856598 30.5430669,52.5508663 30.8130531,51.8368727 C30.9953654,51.7496734 31.1432638,51.6036747 31.2276601,51.4240763 C31.7438703,50.3228861 32.4841814,49.5824927 33.0704488,49.5824927 C33.643606,49.5824927 34.3486837,50.2672866 34.8677618,51.3276772 C34.9447837,51.4848758 35.0697393,51.6148746 35.2250121,51.7008739 C35.5236766,52.4468672 35.6941079,53.2496601 35.6941079,53.9144542 C35.6941079,54.2440512 35.6941079,54.9304451 35.5990597,55.0952437 C35.59865,55.0956437 35.5826721,55.1072436 35.5306414,55.1216434 C35.4482935,55.0932437 35.3626682,55.0788438 35.2749944,55.0788438 L34.4195602,55.0788438 C34.0049532,55.0788438 33.6587646,55.4052409 33.642377,55.8088373 L33.6415576,55.838437 C33.6415576,56.2568333 33.9906141,56.5980303 34.4195602,56.5980303 L35.2749944,56.5980303 C35.4573067,56.5980303 35.6306059,56.5364308 35.769491,56.4236318 C37.0497744,56.1452343 37.0497744,55.060844 37.0497744,53.9140542 C37.0497744,53.0956615 36.8469775,52.1212701 36.4921854,51.2296781 C36.5647006,51.0200799 36.5520002,50.790482 36.4528551,50.5868838 C35.860852,49.3784945 35.0881754,48.5297021 34.2126664,48.1265057 C34.1155697,47.9177075 33.9676714,47.7389091 33.7857687,47.6073103 C33.9402221,47.076115 34.3630229,46.4581205 34.9382286,46.0329243 C35.75761,45.9857247 36.5098021,45.9493251 37.0284705,45.7917265 C37.1452323,46.7533179 40.0101993,49.9164898 41.8878117,51.9008721 L42.6879377,48.8296994 C42.0893796,48.4733026 41.9562301,47.7041095 41.9562301,47.0633152 L45.0416106,47.0633152 C45.0416106,47.7097094 44.9080515,48.4861025 44.296793,48.8384994 L45.1104387,51.9032721 C46.986822,49.9168898 49.8505599,46.7549179 49.9697799,45.7917265 C50.5072941,45.954525 51.2979971,45.9881247 52.1526119,46.0377243 C52.6749675,46.4633205 52.9990329,47.0933149 53.1440634,47.6481099 C52.5639413,47.8177084 52.0788676,48.199305 51.7941325,48.7181004 C51.5085781,49.2404958 51.4475342,49.8408904 51.6237012,50.4080854 C51.7994585,50.9756803 52.1907131,51.4420762 52.7261789,51.7212737 C53.0555702,51.8932722 53.4263402,51.9840714 53.79752,51.9840714 C54.6382053,51.9840714 55.4071947,51.5348754 55.8033656,50.8108818 C56.3941396,49.7320914 55.9762551,48.3841034 54.8713193,47.8073085 C54.7680772,47.752909 54.6590995,47.7073094 54.5406989,47.6681098 C54.4726903,47.2645134 54.3452765,46.8677169 54.1629641,46.4865203 C54.1195369,46.3973211 54.0716031,46.3133218 54.0244886,46.2285226 C54.1539509,46.2513224 54.2834132,46.2721222 54.4091882,46.3005219 C54.916795,46.4161209 56.5928396,46.5597196 58.2574128,48.3809034 C59.2017499,49.4088943 60.1378931,50.9700804 60.8548518,53.3800589 C61.0469967,54.0260532 61.0428998,54.7088471 60.8749266,55.3392415 C60.8044598,55.5940392 60.7184248,55.840037 60.591011,56.0744349 C58.9669971,59.0772082 50.4208494,60 43.5097772,60 C43.507319,60 43.5011737,60 43.4995349,60 C43.4966671,60 43.4929799,60 43.4892926,60 Z M53.7995685,50.9636804 C53.1207707,50.9636804 52.5704964,50.4264269 52.5704964,49.7636911 C52.5704964,49.1009553 53.1207707,48.5637018 53.7995685,48.5637018 C54.4783662,48.5637018 55.0286405,49.1009553 55.0286405,49.7636911 C55.0286405,50.4264269 54.4783662,50.9636804 53.7995685,50.9636804 Z" id="doctor-icon"></path>
                </g>
            </g>
        </g>
    </g>
</svg>