<?xml version="1.0" encoding="UTF-8"?>
<svg width="41px" height="41px" viewBox="0 0 41 41" version="1.1" xmlns="http://www.w3.org/2000/svg" xmlns:xlink="http://www.w3.org/1999/xlink">
    <!-- Generator: sketchtool 52.3 (67297) - http://www.bohemiancoding.com/sketch -->
    <title>8703B916-61EF-4D0C-97C3-FC89BA47F9A6</title>
    <desc>Created with sketchtool.</desc>
    <g id="pages" stroke="none" stroke-width="1" fill="none" fill-rule="evenodd">
        <g id="Medication-question-(still-taking)" transform="translate(-319.000000, -235.000000)" fill="#FFFFFF" fill-rule="nonzero">
            <g id="image" transform="translate(201.000000, 180.000000)">
                <path d="M158.442411,90.4471243 L150.458038,82.4641148 C150.09766,82.1037985 149.609148,81.9036227 149.09661,81.9036227 L147.791242,81.9036227 C150.001559,79.0771409 151.314937,75.5220193 151.314937,71.6546236 C151.314937,62.4545455 143.859118,55 134.657468,55 C125.455819,55 118,62.4545455 118,71.6546236 C118,80.8547017 125.455819,88.3092471 134.657468,88.3092471 C138.525525,88.3092471 142.081254,86.9960941 144.908218,84.7861537 L144.908218,86.0912997 C144.908218,86.6037496 145.108428,87.0921785 145.468806,87.4524949 L153.453179,95.4355043 C154.205969,96.1881652 155.423245,96.1881652 156.168026,95.4355043 L158.434403,93.1695147 C159.187192,92.4168538 159.187192,91.1997852 158.442411,90.4471243 Z M134.657468,81.9036227 C128.995531,81.9036227 124.406719,77.3236012 124.406719,71.6546236 C124.406719,65.993653 128.987522,61.4056245 134.657468,61.4056245 C140.319406,61.4056245 144.908218,65.9856459 144.908218,71.6546236 C144.908218,77.3155942 140.327414,81.9036227 134.657468,81.9036227 Z" id="enlarge-icon"></path>
            </g>
        </g>
    </g>
</svg>