<?xml version="1.0" encoding="UTF-8"?>
<svg width="107px" height="91px" viewBox="0 0 107 91" version="1.1" xmlns="http://www.w3.org/2000/svg" xmlns:xlink="http://www.w3.org/1999/xlink">
    <!-- Generator: sketchtool 52.3 (67297) - http://www.bohemiancoding.com/sketch -->
    <title>878AF17A-9F04-4B32-9DED-35AF2BBFBCAE</title>
    <desc>Created with sketchtool.</desc>
    <g id="pages" stroke="none" stroke-width="1" fill="none" fill-rule="evenodd">
        <g id="Medication-question-(when-taking)" transform="translate(-899.000000, -599.000000)" fill="#0DA4C5" stroke="#0DA4C5">
            <g id="answer" transform="translate(807.000000, 518.000000)">
                <g id="icon" transform="translate(68.000000, 49.000000)">
                    <path d="M74.6243826,35.8299247 C74.6243826,34.2666743 75.9112515,33 77.499425,33 C79.0875984,33 80.3744674,34.2666743 80.3744674,35.8299247 L80.3744674,49.2233923 C80.3744674,50.7866428 79.0875984,52.0533171 77.499425,52.0533171 C75.9112515,52.0533171 74.6243826,50.7866428 74.6243826,49.2233923 L74.6243826,35.8299247 Z M108.831638,82.8938365 C107.243464,82.8938365 105.956595,81.6271622 105.956595,80.0639118 C105.956595,78.5006614 107.243464,77.2339871 108.831638,77.2339871 L122.438638,77.2339871 C124.026812,77.2339871 125.313681,78.5006614 125.313681,80.0639118 C125.313681,81.6271622 124.026812,82.8938365 122.438638,82.8938365 L108.831638,82.8938365 Z M32.5602116,77.2339871 L46.1672125,77.2339871 C47.7553859,77.2339871 49.0422549,78.5006614 49.0422549,80.0639118 C49.0422549,81.6271622 47.7553859,82.8938365 46.1672125,82.8938365 L32.5602116,82.8938365 C30.9720382,82.8938365 29.6851692,81.6271622 29.6851692,80.0639118 C29.6851692,78.5006614 30.9720382,77.2339871 32.5602116,77.2339871 Z M111.308774,46.7851292 C112.432341,47.8899318 112.432341,49.6818402 111.309924,50.7866428 L101.688882,60.2567028 C101.126524,60.8091041 100.391663,61.0853047 99.6556521,61.0853047 C98.9196412,61.0853047 98.1836303,60.8091041 97.622422,60.2567028 C96.4988555,59.1519002 96.4988555,57.3599919 97.622422,56.2551893 L107.243464,46.7851292 C108.365881,45.6791946 110.185207,45.6791946 111.308774,46.7851292 Z M55.3431979,61.0864367 C54.6083371,61.0864367 53.8723262,60.8102361 53.3111179,60.2578348 L43.6900759,50.7877747 C42.5665093,49.6829721 42.5665093,47.8910638 43.6900759,46.7862612 C44.8124925,45.6803266 46.6318193,45.6803266 47.7553859,46.7862612 L57.3764279,56.2563212 C58.4999945,57.3611238 58.4999945,59.1530322 57.3764279,60.2578348 C56.8140696,60.8102361 56.0792088,61.0864367 55.3431979,61.0864367 Z M27.8750424,93.6067995 C26.286869,93.6067995 25,92.3401252 25,90.7768747 C25,89.2136243 26.286869,87.94695 27.8750424,87.94695 L58.1216389,87.94695 C57.3246772,85.7611162 56.9118211,83.4688772 56.9118211,81.0951363 C56.9118211,69.9112739 66.1556575,60.8125 77.5178253,60.8125 C88.8592927,60.8125 98.0858789,69.9112739 98.0858789,81.0951363 C98.0858789,83.4688772 97.6741728,85.7611162 96.876061,87.94695 L127.124958,87.94695 C128.713131,87.94695 130,89.2136243 130,90.7768747 C130,92.3401252 128.713131,93.6067995 127.124958,93.6067995 L27.8750424,93.6067995 Z M62.663056,81.0962683 C62.663056,83.515288 63.2564647,85.8165827 64.3995816,87.948082 L90.5992684,87.948082 C91.7423852,85.8165827 92.336944,83.515288 92.336944,81.0962683 C92.336944,73.0332468 85.6886959,66.4734814 77.5189753,66.4734814 C69.3274044,66.4734814 62.663056,73.0332468 62.663056,81.0962683 Z M106.93641,107.803966 L48.0624404,107.803966 C46.474267,107.803966 45.187398,106.537291 45.187398,104.974041 C45.187398,103.410791 46.474267,102.144116 48.0624404,102.144116 L106.93641,102.144116 C108.524583,102.144116 109.811452,103.410791 109.811452,104.974041 C109.811452,106.537291 108.524583,107.803966 106.93641,107.803966 Z M94.297723,119.170075 C94.297723,120.733326 93.010854,122 91.4238305,122 L63.5761695,122 C61.987996,122 60.701127,120.733326 60.701127,119.170075 C60.701127,117.606825 61.987996,116.340151 63.5761695,116.340151 L91.4226805,116.340151 C93.010854,116.340151 94.297723,117.606825 94.297723,119.170075 Z" id="evening-icon"></path>
                </g>
            </g>
        </g>
    </g>
</svg>