<?xml version="1.0" encoding="UTF-8"?>
<svg width="68px" height="86px" viewBox="0 0 68 86" version="1.1" xmlns="http://www.w3.org/2000/svg" xmlns:xlink="http://www.w3.org/1999/xlink">
    <!-- Generator: sketchtool 52.2 (67145) - http://www.bohemiancoding.com/sketch -->
    <title>F6EE961B-1DF2-4410-B541-3F274F414D28</title>
    <desc>Created with sketchtool.</desc>
    <g id="pages" stroke="none" stroke-width="1" fill="none" fill-rule="evenodd">
        <g id="Welcome-screen-(new-user)" transform="translate(-766.000000, -1265.000000)" fill="#0DA4C5" fill-rule="nonzero">
            <g id="claim" transform="translate(605.000000, 1183.000000)">
                <path d="M225.510526,97.1178947 C215.668421,96.3031579 206.452632,92.0484211 199.473684,84.9873684 L197.684211,83.0863158 C196.968421,82.3621053 195.984211,82 195,82 C194.015789,82 193.031579,82.3621053 192.315789,83.0863158 L190.526316,84.9873684 C183.547368,92.0484211 174.331579,96.3031579 164.489474,97.1178947 C162.521053,97.2989474 161,98.9284211 161,100.92 L161,111.873684 C161,134.867368 173.347368,156.231579 193.121053,167.547368 C193.657895,167.909474 194.373684,168 195,168 C195.626316,168 196.252632,167.818947 196.878947,167.547368 C216.652632,156.231579 229,134.867368 229,111.873684 L229,100.92 C229,98.9284211 227.478947,97.2989474 225.510526,97.1178947 Z M211.373684,117.667368 L194.642105,136.044211 C193.926316,136.768421 192.942105,137.221053 191.957895,137.311579 C191.957895,137.311579 191.868421,137.311579 191.868421,137.311579 C190.884211,137.311579 189.9,136.949474 189.184211,136.225263 L179.789474,126.538947 C178.357895,125.090526 178.357895,122.646316 179.789474,121.197895 C181.221053,119.749474 183.636842,119.749474 185.068421,121.197895 L191.778947,127.987368 L205.826316,112.507368 C207.257895,110.968421 209.584211,110.877895 211.105263,112.235789 C212.626316,113.684211 212.715789,116.128421 211.373684,117.667368 Z" id="increase-safety-icon"></path>
            </g>
        </g>
    </g>
</svg>