<?xml version="1.0" encoding="UTF-8"?>
<svg width="63px" height="92px" viewBox="0 0 63 92" version="1.1" xmlns="http://www.w3.org/2000/svg" xmlns:xlink="http://www.w3.org/1999/xlink">
    <!-- Generator: sketchtool 52.2 (67145) - http://www.bohemiancoding.com/sketch -->
    <title>C1C7E2AC-CDCF-4ED1-BBF0-E04A7424C56D</title>
    <desc>Created with sketchtool.</desc>
    <g id="pages" stroke="none" stroke-width="1" fill="none" fill-rule="evenodd">
        <g id="Welcome-screen-(new-user)" transform="translate(-1174.000000, -1256.000000)" fill="#0DA4C5">
            <g id="claim" transform="translate(1010.000000, 1183.000000)">
                <path d="M208.678,142.426 L226.638,142.426 L226.638,164.6 L208.678,164.6 L208.678,142.426 Z M186.339,130.016 L204.299,130.016 L204.299,164.599 L186.339,164.599 L186.339,130.016 Z M164,116.957 L181.96,116.957 L181.96,164.6 L164,164.6 L164,116.957 Z M195.322,73.024 C196.826,73.024 198.045,74.243 198.045,75.747 L198.045,79.419 L198.886,79.419 C202.66,79.419 205.617,81.739 205.617,84.7 L205.617,87.117 C205.617,88.621 204.398,89.84 202.894,89.84 C201.39,89.84 200.171,88.621 200.171,87.117 L200.171,85.137 C199.932,85.012 199.485,84.866 198.886,84.866 L191.751,84.866 C191.152,84.866 190.705,85.012 190.466,85.137 L190.466,93.224 C190.705,93.349 191.152,93.495 191.751,93.495 L198.886,93.495 C202.66,93.495 205.617,95.815 205.617,98.776 L205.617,107.538 C205.617,110.5 202.66,112.819 198.886,112.819 L198.045,112.819 L198.045,117.074 C198.045,118.578 196.826,119.797 195.322,119.797 C193.818,119.797 192.599,118.578 192.599,117.074 L192.599,112.819 L191.752,112.819 C187.978,112.819 185.021,110.499 185.021,107.538 L185.021,104.354 C185.021,102.85 186.24,101.631 187.744,101.631 C189.248,101.631 190.467,102.85 190.467,104.354 L190.467,107.102 C190.706,107.227 191.153,107.373 191.752,107.373 L195.288,107.373 C195.3,107.373 195.31,107.37 195.322,107.37 C195.334,107.37 195.344,107.373 195.356,107.373 L198.887,107.373 C199.486,107.373 199.933,107.227 200.172,107.102 L200.172,99.213 C199.933,99.088 199.486,98.942 198.887,98.942 L191.752,98.942 C187.978,98.942 185.021,96.622 185.021,93.661 L185.021,84.701 C185.021,81.739 187.978,79.42 191.752,79.42 L192.599,79.42 L192.599,75.747 C192.599,74.243 193.818,73.024 195.322,73.024 Z" id="lower-cost-icon"></path>
            </g>
        </g>
    </g>
</svg>