<?xml version="1.0" encoding="UTF-8"?>
<svg width="51px" height="38px" viewBox="0 0 51 38" version="1.1" xmlns="http://www.w3.org/2000/svg" xmlns:xlink="http://www.w3.org/1999/xlink">
    <!-- Generator: sketchtool 52.3 (67297) - http://www.bohemiancoding.com/sketch -->
    <title>A7567D01-7D55-4E49-9C47-5B9588C96985</title>
    <desc>Created with sketchtool.</desc>
    <g id="pages" stroke="none" stroke-width="1" fill="none" fill-rule="evenodd">
        <g id="Drop-down-&gt;-Contact-Us" transform="translate(-513.000000, -566.000000)" fill="#344559" fill-rule="nonzero">
            <g id="overlay">
                <path d="M563.033789,578.547917 C563.422266,578.241146 564,578.528125 564,579.013021 L564,599.25 C564,601.872396 561.858398,604 559.21875,604 L517.78125,604 C515.141602,604 513,601.872396 513,599.25 L513,579.022917 C513,578.528125 513.567773,578.251042 513.966211,578.557812 C516.197461,580.279688 519.155859,582.466667 529.316016,589.799479 C531.417773,591.323437 534.963867,594.529688 538.5,594.509896 C542.056055,594.539583 545.671875,591.264063 547.693945,589.799479 C557.854102,582.466667 560.802539,580.269792 563.033789,578.547917 Z M538.5,591.333333 C540.810938,591.372917 544.137891,588.44375 545.811328,587.236458 C559.029492,577.706771 560.035547,576.875521 563.083594,574.500521 C563.661328,574.055208 564,573.3625 564,572.630208 L564,570.75 C564,568.127604 561.858398,566 559.21875,566 L517.78125,566 C515.141602,566 513,568.127604 513,570.75 L513,572.630208 C513,573.3625 513.338672,574.045313 513.916406,574.500521 C516.964453,576.865625 517.970508,577.706771 531.188672,587.236458 C532.862109,588.44375 536.189062,591.372917 538.5,591.333333 Z" id="mail-button-icon"></path>
            </g>
        </g>
    </g>
</svg>