<?xml version="1.0" encoding="UTF-8"?>
<svg width="30px" height="30px" viewBox="0 0 30 30" version="1.1" xmlns="http://www.w3.org/2000/svg" xmlns:xlink="http://www.w3.org/1999/xlink">
    <!-- Generator: sketchtool 52.3 (67297) - http://www.bohemiancoding.com/sketch -->
    <title>69A9DCAC-0174-4591-BA05-31F97C78D9ED</title>
    <desc>Created with sketchtool.</desc>
    <g id="pages" stroke="none" stroke-width="1" fill="none" fill-rule="evenodd">
        <g id="medication-question-(how-often)" transform="translate(-1050.000000, -469.000000)" fill="#344559" fill-rule="nonzero">
            <g id="answer" transform="translate(1010.000000, 446.000000)">
                <g id="title" transform="translate(40.000000, 19.000000)">
                    <path d="M4.39313984,8.39313984 C-1.46437995,14.2506596 -1.46437995,23.7493404 4.39313984,29.6068602 C10.2506596,35.4643799 19.7493404,35.4643799 25.6068602,29.6068602 C31.4643799,23.7493404 31.4643799,14.2506596 25.6068602,8.39313984 C19.7493404,2.53562005 10.2506596,2.53562005 4.39313984,8.39313984 Z M15.6015831,10.292876 C16.8680739,10.292876 17.8812665,11.3377309 17.8812665,12.6042216 C17.8812665,13.8707124 16.8364116,14.9155673 15.6015831,14.9155673 C14.3350923,14.9155673 13.2902375,13.8707124 13.2902375,12.5725594 C13.2902375,11.3060686 14.3350923,10.292876 15.6015831,10.292876 Z M18.8627968,25.7757256 C18.7994723,25.9656992 18.6728232,26.1873351 18.5461741,26.3139842 C17.7229551,27.1688654 16.7097625,27.6754617 15.5065963,27.6754617 C14.9366755,27.6754617 14.3984169,27.6754617 13.828496,27.5804749 C12.9102902,27.4538259 11.7387863,26.3139842 11.8970976,25.1108179 C12.0237467,24.2875989 12.1503958,23.4643799 12.2770449,22.6411609 C12.530343,21.2163588 12.7836412,19.7598945 13.0369393,18.3350923 C13.0369393,18.2401055 13.0686016,18.1451187 13.0686016,18.0501319 C13.0686016,17.4485488 12.878628,17.2269129 12.2770449,17.1635884 C12.0237467,17.1319261 11.7704485,17.1002639 11.5171504,17.0369393 C11.23219,16.9419525 11.0738786,16.6886544 11.1055409,16.4670185 C11.1372032,16.2137203 11.2955145,16.055409 11.6121372,15.9920844 C11.7704485,15.9604222 11.9604222,15.9604222 12.1503958,15.9604222 C12.8469657,15.9604222 13.5435356,15.9604222 14.2717678,15.9604222 C15.0316623,15.9604222 15.7598945,15.9604222 16.5197889,15.9604222 C17.0580475,15.9604222 17.3746702,16.2137203 17.3746702,16.7519789 C17.3746702,17.1952507 17.3113456,17.6385224 17.2163588,18.0817942 C16.9313984,19.7282322 16.6147757,21.3430079 16.3298153,22.9894459 C16.2348285,23.5277045 16.1081794,24.0659631 16.0448549,24.6042216 C16.0131926,24.8575198 16.0448549,25.1424802 16.1081794,25.3957784 C16.2031662,25.7440633 16.4564644,25.9340369 16.8047493,25.9023747 C17.0897098,25.8707124 17.3746702,25.7757256 17.6596306,25.6490765 C17.8812665,25.5540897 18.0712401,25.3957784 18.292876,25.3324538 C18.6728232,25.2058047 18.9577836,25.4274406 18.8627968,25.7757256 Z" id="medication-different-icon"></path>
                </g>
            </g>
        </g>
    </g>
</svg>