<?xml version="1.0" encoding="UTF-8"?>
<svg width="22px" height="25px" viewBox="0 0 22 25" version="1.1" xmlns="http://www.w3.org/2000/svg" xmlns:xlink="http://www.w3.org/1999/xlink">
    <!-- Generator: sketchtool 52.3 (67297) - http://www.bohemiancoding.com/sketch -->
    <title>496FA166-95A2-44CD-AF27-2492E13A43ED</title>
    <desc>Created with sketchtool.</desc>
    <g id="pages" stroke="none" stroke-width="1" fill="none" fill-rule="evenodd">
        <g id="medication-question-(how-often)" transform="translate(-282.000000, -471.000000)" fill="#000000" fill-rule="nonzero">
            <g id="answer" transform="translate(200.000000, 446.000000)">
                <g id="title" transform="translate(82.000000, 20.000000)">
                    <g id="calendar-alt-solid-(2)" transform="translate(0.000000, 5.000000)">
                        <path d="M21.4107143,7.8125 L0.589285714,7.8125 C0.265178571,7.8125 0,7.54882812 0,7.2265625 L0,5.46875 C0,4.17480469 1.05580357,3.125 2.35714286,3.125 L4.71428571,3.125 L4.71428571,0.5859375 C4.71428571,0.263671875 4.97946429,0 5.30357143,0 L7.26785714,0 C7.59196429,0 7.85714286,0.263671875 7.85714286,0.5859375 L7.85714286,3.125 L14.1428571,3.125 L14.1428571,0.5859375 C14.1428571,0.263671875 14.4080357,0 14.7321429,0 L16.6964286,0 C17.0205357,0 17.2857143,0.263671875 17.2857143,0.5859375 L17.2857143,3.125 L19.6428571,3.125 C20.9441964,3.125 22,4.17480469 22,5.46875 L22,7.2265625 C22,7.54882812 21.7348214,7.8125 21.4107143,7.8125 Z M0.589285714,9.375 L21.4107143,9.375 C21.7348214,9.375 22,9.63867188 22,9.9609375 L22,22.65625 C22,23.9501953 20.9441964,25 19.6428571,25 L2.35714286,25 C1.05580357,25 0,23.9501953 0,22.65625 L0,9.9609375 C0,9.63867188 0.265178571,9.375 0.589285714,9.375 Z M6.28571429,19.3359375 C6.28571429,19.0136719 6.02053571,18.75 5.69642857,18.75 L3.73214286,18.75 C3.40803571,18.75 3.14285714,19.0136719 3.14285714,19.3359375 L3.14285714,21.2890625 C3.14285714,21.6113281 3.40803571,21.875 3.73214286,21.875 L5.69642857,21.875 C6.02053571,21.875 6.28571429,21.6113281 6.28571429,21.2890625 L6.28571429,19.3359375 Z M6.28571429,13.0859375 C6.28571429,12.7636719 6.02053571,12.5 5.69642857,12.5 L3.73214286,12.5 C3.40803571,12.5 3.14285714,12.7636719 3.14285714,13.0859375 L3.14285714,15.0390625 C3.14285714,15.3613281 3.40803571,15.625 3.73214286,15.625 L5.69642857,15.625 C6.02053571,15.625 6.28571429,15.3613281 6.28571429,15.0390625 L6.28571429,13.0859375 Z M12.5714286,19.3359375 C12.5714286,19.0136719 12.30625,18.75 11.9821429,18.75 L10.0178571,18.75 C9.69375,18.75 9.42857143,19.0136719 9.42857143,19.3359375 L9.42857143,21.2890625 C9.42857143,21.6113281 9.69375,21.875 10.0178571,21.875 L11.9821429,21.875 C12.30625,21.875 12.5714286,21.6113281 12.5714286,21.2890625 L12.5714286,19.3359375 Z M12.5714286,13.0859375 C12.5714286,12.7636719 12.30625,12.5 11.9821429,12.5 L10.0178571,12.5 C9.69375,12.5 9.42857143,12.7636719 9.42857143,13.0859375 L9.42857143,15.0390625 C9.42857143,15.3613281 9.69375,15.625 10.0178571,15.625 L11.9821429,15.625 C12.30625,15.625 12.5714286,15.3613281 12.5714286,15.0390625 L12.5714286,13.0859375 Z M18.8571429,19.3359375 C18.8571429,19.0136719 18.5919643,18.75 18.2678571,18.75 L16.3035714,18.75 C15.9794643,18.75 15.7142857,19.0136719 15.7142857,19.3359375 L15.7142857,21.2890625 C15.7142857,21.6113281 15.9794643,21.875 16.3035714,21.875 L18.2678571,21.875 C18.5919643,21.875 18.8571429,21.6113281 18.8571429,21.2890625 L18.8571429,19.3359375 Z M18.8571429,13.0859375 C18.8571429,12.7636719 18.5919643,12.5 18.2678571,12.5 L16.3035714,12.5 C15.9794643,12.5 15.7142857,12.7636719 15.7142857,13.0859375 L15.7142857,15.0390625 C15.7142857,15.3613281 15.9794643,15.625 16.3035714,15.625 L18.2678571,15.625 C18.5919643,15.625 18.8571429,15.3613281 18.8571429,15.0390625 L18.8571429,13.0859375 Z" id="medication-every-day-icon"></path>
                    </g>
                </g>
            </g>
        </g>
    </g>
</svg>