<?xml version="1.0" encoding="UTF-8"?>
<svg width="31px" height="31px" viewBox="0 0 31 31" version="1.1" xmlns="http://www.w3.org/2000/svg" xmlns:xlink="http://www.w3.org/1999/xlink">
    <!-- Generator: sketchtool 52.3 (67297) - http://www.bohemiancoding.com/sketch -->
    <title>3FFBCECF-BA50-4EF4-944C-9AC000056016</title>
    <desc>Created with sketchtool.</desc>
    <g id="pages" stroke="none" stroke-width="1" fill="none" fill-rule="evenodd">
        <g id="medication-question-(how-often)" transform="translate(-634.000000, -469.000000)" fill="#344559" fill-rule="nonzero">
            <g id="answer" transform="translate(605.000000, 446.000000)">
                <path d="M44.5,23 C35.9528571,23 29,29.9528571 29,38.5 C29,47.0471429 35.9528571,54 44.5,54 C53.0471429,54 60,47.0471429 60,38.5 C60,29.9528571 53.0471429,23 44.5,23 Z M49.600449,33.4387755 C50.4304898,33.4387755 51.103,34.1112857 51.103,34.9413265 C51.103,35.7713673 50.4304898,36.4438776 49.600449,36.4438776 C48.7704082,36.4438776 48.097898,35.7713673 48.097898,34.9413265 C48.0985306,34.1112857 48.7710408,33.4387755 49.600449,33.4387755 Z M39.399551,33.4387755 C40.2295918,33.4387755 40.902102,34.1112857 40.902102,34.9413265 C40.902102,35.7713673 40.2295918,36.4438776 39.399551,36.4438776 C38.5695102,36.4438776 37.897,35.7713673 37.897,34.9413265 C37.8963673,34.1112857 38.5695102,33.4387755 39.399551,33.4387755 Z M51.3921224,46.4752245 C50.9486327,46.7523265 50.3621633,46.6175714 50.0844286,46.1728163 C48.9380612,44.3393878 46.9648163,43.2442653 44.8055714,43.2442653 C42.5039796,43.2442653 40.3997755,44.5064082 39.3141429,46.5384898 C39.1426939,46.8586122 38.8149796,47.0401837 38.4765102,47.0401837 C38.3253061,47.0401837 38.1728367,47.0041224 38.0298571,46.9282041 C37.5680204,46.6808367 37.3927755,46.1057551 37.6401429,45.6439184 C39.0572857,42.993102 41.8023673,41.3463061 44.8055714,41.3463061 C47.6234082,41.3463061 50.1983061,42.7748367 51.6945306,45.166898 C51.9716327,45.6116531 51.8362449,46.1974898 51.3921224,46.4752245 Z" id="medication-when-need-icon"></path>
            </g>
        </g>
    </g>
</svg>