<?xml version="1.0" encoding="UTF-8"?>
<svg width="93px" height="79px" viewBox="0 0 93 79" version="1.1" xmlns="http://www.w3.org/2000/svg" xmlns:xlink="http://www.w3.org/1999/xlink">
    <!-- Generator: sketchtool 52.3 (67297) - http://www.bohemiancoding.com/sketch -->
    <title>D110EEEC-9E34-41FA-9C78-78767A3FE97F</title>
    <desc>Created with sketchtool.</desc>
    <g id="pages" stroke="none" stroke-width="1" fill="none" fill-rule="evenodd">
        <g id="Medication-question-(when-taking)" transform="translate(-299.000000, -602.000000)" fill="#0DA4C5" fill-rule="nonzero">
            <g id="answer" transform="translate(200.000000, 518.000000)">
                <g id="icon" transform="translate(68.000000, 49.000000)">
                    <path d="M120,90.2 C116.1,90.2 114,92.2 112.5,93.6 C111.2,94.8 110.6,95.3 109.2,95.3 C107.8,95.3 107.2,94.8 105.9,93.6 C104.5,92.3 102.6,90.5 99.3,90.2 C100.4,87.5 101,84.6 101,81.7 C101,68.7 90.2,58.2 77,58.2 C63.8,58.2 53,68.8 53,81.7 C53,84.7 53.6,87.5 54.7,90.2 C51.4,90.5 49.5,92.2 48.1,93.6 C46.8,94.8 46.2,95.3 44.8,95.3 C43.4,95.3 42.8,94.8 41.5,93.6 C40,92.2 37.9,90.2 34,90.2 C32.3,90.2 31,91.5 31,93.2 C31,94.9 32.3,96.2 34,96.2 C35.4,96.2 36,96.7 37.3,97.9 C38.8,99.3 40.9,101.3 44.8,101.3 C48.7,101.3 50.7,99.3 52.3,97.9 C53.6,96.7 54.2,96.2 55.6,96.2 C57,96.2 57.6,96.7 58.9,97.9 C59.9,98.9 61.2,100.1 63.2,100.8 C63.6,101 64.1,101.1 64.5,101.1 C65.1,101.2 65.7,101.3 66.4,101.3 C70.3,101.3 72.4,99.3 73.9,97.9 C75.2,96.7 75.8,96.2 77.2,96.2 C78.6,96.2 79.2,96.7 80.5,97.9 C82,99.3 84.1,101.3 88,101.3 C88.7,101.3 89.3,101.2 89.9,101.1 C90.3,101.1 90.8,101 91.2,100.8 C93.1,100.1 94.4,98.9 95.4,97.9 C96.7,96.7 97.3,96.2 98.7,96.2 C100.1,96.2 100.7,96.7 102,97.9 C103.3,99.4 105.3,101.3 109.2,101.3 C113.1,101.3 115.2,99.3 116.7,97.9 C118,96.7 118.6,96.2 120,96.2 C121.7,96.2 123,94.9 123,93.2 C123,91.5 121.6,90.2 120,90.2 Z M77,90.2 C73.1,90.2 71,92.2 69.5,93.6 C68.2,94.8 67.6,95.3 66.2,95.3 C66,95.3 65.8,95.3 65.6,95.3 C61.4,92 58.9,87 58.9,81.7 C58.9,72 67,64.2 76.9,64.2 C86.8,64.2 94.9,72.1 94.9,81.7 C94.9,87 92.5,92 88.2,95.3 C88,95.3 87.8,95.3 87.6,95.3 C86.2,95.3 85.6,94.8 84.3,93.6 C82.9,92.2 80.8,90.2 77,90.2 Z M34.3,82.7 C32.6,82.7 31.3,81.4 31.3,79.7 C31.3,78 32.6,76.7 34.3,76.7 L43.6,76.7 C45.3,76.7 46.6,78 46.6,79.7 C46.6,81.4 45.3,82.7 43.6,82.7 L34.3,82.7 Z M120.6,76.7 C122.3,76.7 123.6,78 123.6,79.7 C123.6,81.4 122.3,82.7 120.6,82.7 L111.3,82.7 C109.6,82.7 108.3,81.4 108.3,79.7 C108.3,78 109.6,76.7 111.3,76.7 L120.6,76.7 Z M74,38 C74,36.4 75.3,35 77,35 C78.7,35 80,36.3 80,38 L80,47.3 C80,49 78.7,50.3 77,50.3 C75.3,50.3 74,49 74,47.3 L74,38 Z M48,48.8 L54.6,55.4 C55.8,56.5 55.8,58.4 54.6,59.6 C54,60.2 53.2,60.5 52.5,60.5 C51.8,60.5 51,60.2 50.4,59.6 L43.8,53 C42.6,51.9 42.6,50 43.8,48.8 C44.9,47.6 46.8,47.6 48,48.8 Z M106.1,48.8 C107.2,47.6 109.1,47.6 110.3,48.8 C111.5,49.9 111.5,51.8 110.3,53 L103.7,59.6 C103.1,60.2 102.3,60.5 101.6,60.5 C100.9,60.5 100.1,60.2 99.5,59.6 C98.3,58.5 98.3,56.6 99.5,55.4 L106.1,48.8 Z M112.5,110.6 C112.5,112.2 111.2,113.6 109.5,113.6 C105.6,113.6 103.5,111.6 102,110.2 C100.7,109 100.1,108.5 98.7,108.5 C97.3,108.5 96.7,109 95.4,110.2 C93.9,111.6 91.8,113.6 87.9,113.6 C84,113.6 81.9,111.6 80.4,110.2 C79.1,109 78.5,108.5 77.1,108.5 C75.7,108.5 75.1,109 73.8,110.2 C72.3,111.6 70.2,113.6 66.3,113.6 C62.4,113.6 60.3,111.6 58.8,110.2 C57.5,109 56.9,108.5 55.5,108.5 C54.1,108.5 53.5,109 52.2,110.2 C50.7,111.6 48.6,113.6 44.7,113.6 C43,113.6 41.7,112.3 41.7,110.6 C41.7,108.9 43,107.6 44.7,107.6 C46.1,107.6 46.7,107.1 48,105.9 C49.6,104.5 51.6,102.5 55.5,102.5 C59.4,102.5 61.5,104.5 63,105.9 C64.3,107.1 64.9,107.6 66.3,107.6 C67.7,107.6 68.3,107.1 69.6,105.9 C71.1,104.5 73.2,102.5 77.1,102.5 C81,102.5 83.1,104.5 84.6,105.9 C85.9,107.1 86.5,107.6 87.9,107.6 C89.3,107.6 89.9,107.1 91.2,105.9 C92.7,104.5 94.8,102.5 98.7,102.5 C102.6,102.5 104.7,104.5 106.2,105.9 C107.5,107.1 108.1,107.6 109.5,107.6 C111.2,107.6 112.5,108.9 112.5,110.6 Z" id="in-the-morning-icon"></path>
                </g>
            </g>
        </g>
    </g>
</svg>