<?xml version="1.0" encoding="UTF-8"?>
<svg width="81px" height="74px" viewBox="0 0 81 74" version="1.1" xmlns="http://www.w3.org/2000/svg" xmlns:xlink="http://www.w3.org/1999/xlink">
    <!-- Generator: sketchtool 52.3 (67297) - http://www.bohemiancoding.com/sketch -->
    <title>DC688E98-B597-4B6C-A5EE-5965711970F6</title>
    <desc>Created with sketchtool.</desc>
    <g id="pages" stroke="none" stroke-width="1" fill="none" fill-rule="evenodd">
        <g id="Medication-question-(when-taking)" transform="translate(-1215.000000, -608.000000)" fill="#0DA4C5">
            <g id="answer" transform="translate(1110.000000, 518.000000)">
                <g id="icon" transform="translate(68.000000, 49.000000)">
                    <path d="M114.59267,108.272303 L114.626406,108.272303 C116.48959,108.272303 118,109.778349 118,111.636151 C118,113.493954 116.48959,115 114.626406,115 C110.046751,115 107.643065,112.426656 105.956268,110.542901 C104.471887,108.928253 103.805602,108.272303 102.262182,108.272303 C100.718763,108.272303 100.052478,108.928253 98.5680966,110.542901 C96.8138276,112.426656 94.4270096,115 89.8473553,115 C85.267701,115 82.864015,112.426656 81.1772178,110.542901 C79.6928363,108.928253 79.0012495,108.272303 77.483132,108.272303 C75.9650146,108.272303 75.2987297,108.928253 73.8143482,110.542901 C72.0853811,112.426656 69.7238651,115 65.1442107,115 C60.5645564,115 58.1946064,112.426656 56.4656393,110.542901 C54.9728238,108.928253 54.3065389,108.272303 52.7546855,108.272303 C51.2028322,108.272303 50.5365473,108.928253 49.0521658,110.542901 C47.3231987,112.426656 44.9532486,115 40.3735943,115 C38.5104096,115 37,113.493954 37,111.636151 C37,109.778349 38.5104096,108.272303 40.3735943,108.272303 C41.9254477,108.272303 42.5917326,107.616353 44.0761141,105.993296 C45.8135152,104.11795 48.1750312,101.544606 52.7546855,101.544606 C57.3343399,101.544606 59.7464598,104.11795 61.433257,105.993296 C62.9260725,107.616353 63.6007913,108.272303 65.1442107,108.272303 C66.6876302,108.272303 67.362349,107.616353 68.8129946,106.001705 C70.5419617,104.11795 72.8866097,101.544606 77.483132,101.544606 C82.0796543,101.544606 84.4496043,104.11795 86.1785714,106.001705 C87.6629529,107.616353 88.3292378,108.272303 89.8726572,108.272303 C91.4160766,108.272303 92.0739275,107.616353 93.558309,106.001705 C95.2872761,104.11795 97.6487922,101.544606 102.228446,101.544606 C106.808101,101.544606 109.169617,104.11795 110.898584,106.001705 C112.382965,107.616353 113.04925,108.272303 114.59267,108.272303 Z M98.6861724,41.1382963 C111.817888,45.031951 120.074761,59.0255608 117.493961,72.9939417 C115.44763,83.8296164 106.947139,92.3055513 96.0800708,94.3459701 C94.3776953,94.6606878 92.6498588,94.8183338 90.9184715,94.8169089 C78.7735319,94.8169089 67.5563307,87.0716477 64.1321324,75.5925147 C63.7544278,74.3332867 64.1468457,72.9700456 65.1368296,72.1022443 C66.1268135,71.234443 67.5330143,71.0210487 68.7370887,71.5558965 C77.483132,75.47478 85.5713244,71.8165947 90.2521866,67.1828934 C94.9330487,62.5491921 98.5343607,54.4423172 94.6462932,45.7299495 C94.1120033,44.5310463 94.3255049,43.1318036 95.1932085,42.1455875 C96.060912,41.1593714 97.4244753,40.7661509 98.6861724,41.1382963 Z M110.856414,71.7745466 C112.2607,63.8340417 109.196043,55.7637516 102.869429,50.7420838 C103.58485,58.6254453 100.704322,66.4112884 95.0258226,71.9427391 C89.4784282,77.6178225 81.6626096,80.4997459 73.7468763,79.7889157 C78.7848834,86.0897104 86.8716291,89.1441204 94.8318409,87.7528271 C102.935194,86.1718491 109.270856,79.8544906 110.856414,71.7745466 Z M70.7359434,57.8145753 C68.8727587,57.8145753 67.362349,56.308529 67.362349,54.4507268 C67.362349,52.5929246 68.8727587,51.0868783 70.7359434,51.0868783 C72.5991281,51.0868783 74.1095377,52.5929246 74.1095377,54.4507268 C74.1095377,56.308529 72.5991281,57.8145753 70.7359434,57.8145753 Z M50.4943773,51.0868783 C48.6311926,51.0868783 47.120783,49.580832 47.120783,47.7230298 C47.120783,45.8652275 48.6311926,44.3591813 50.4943773,44.3591813 C52.357562,44.3591813 53.8679717,45.8652275 53.8679717,47.7230298 C53.8679717,49.580832 52.357562,51.0868783 50.4943773,51.0868783 Z M47.120783,71.2699694 C45.2575983,71.2699694 43.7471887,69.7639231 43.7471887,67.9061208 C43.7471887,66.0483186 45.2575983,64.5422723 47.120783,64.5422723 C48.9839677,64.5422723 50.4943773,66.0483186 50.4943773,67.9061208 C50.4943773,69.7639231 48.9839677,71.2699694 47.120783,71.2699694 Z" id="night-icon"></path>
                </g>
            </g>
        </g>
    </g>
</svg>