<?xml version="1.0" encoding="UTF-8"?>
<svg width="29px" height="26px" viewBox="0 0 29 26" version="1.1" xmlns="http://www.w3.org/2000/svg" xmlns:xlink="http://www.w3.org/1999/xlink">
    <!-- Generator: sketchtool 52.2 (67145) - http://www.bohemiancoding.com/sketch -->
    <title>7F48CA3B-53AC-44B2-814E-AE461A3DBEC6</title>
    <desc>Created with sketchtool.</desc>
    <g id="pages" stroke="none" stroke-width="1" fill="none" fill-rule="evenodd">
        <g id="Sign-in-screen-(existing-user-filled)" transform="translate(-1134.000000, -436.000000)" fill="#0DA4C5" fill-rule="nonzero">
            <g id="inputs" transform="translate(625.000000, 161.000000)">
                <g id="input" transform="translate(0.000000, 234.000000)">
                    <g id="button" transform="translate(483.000000, 27.000000)">
                        <path d="M40.4342158,33.9054812 L42.0744774,36.2689485 C41.5511068,36.3187106 41.0257104,36.3436886 40.5000196,36.3438002 C34.4679206,36.3438002 29.1734587,33.0963814 26.3346314,28.237517 C25.8884562,27.4738747 25.8884562,26.5261253 26.3346314,25.762483 C27.5441223,23.6923291 29.200042,21.9145236 31.1691716,20.5555122 L34.0428392,24.6961755 C33.7905493,25.4166618 33.6527993,26.1919412 33.6527993,27.0000254 C33.6527993,30.795223 36.6804287,33.8698327 40.4342158,33.9054812 Z M54.6654077,28.237517 C53.0710627,30.9663562 50.7007162,33.1866707 47.859724,34.6093112 L47.8602778,34.610073 L49.9481765,37.616331 C50.3308153,38.1678168 50.1978986,38.9275063 49.651128,39.3134448 L48.9910761,39.779618 C48.4443054,40.1655565 47.6911112,40.0314936 47.3084724,39.4800078 L31.0518626,16.383669 C30.6692238,15.8321832 30.8021405,15.0724937 31.3489111,14.6865552 L32.008963,14.220382 C32.5557337,13.8344435 33.3089279,13.9685064 33.6915667,14.5199922 L36.2611875,18.2075841 C37.6141176,17.8480011 39.0351676,17.6562506 40.5000196,17.6562506 C46.5321185,17.6562506 51.8265805,20.9036693 54.6654077,25.7625338 C55.1115308,26.5261723 55.1115308,27.4738785 54.6654077,28.237517 Z M47.3472398,27.0000254 C47.3472398,23.1825856 44.2842164,20.093757 40.5000196,20.093757 C39.596841,20.093757 38.7350479,20.2701208 37.9459561,20.5899927 L38.9176068,21.9640354 C40.2200387,21.5491007 41.6889185,21.6510698 42.9655223,22.3403255 L42.9640119,22.3403255 C41.7733004,22.3403255 40.8081445,23.3138047 40.8081445,24.5147844 C40.8081445,25.7145454 41.7721424,26.6892433 42.9640119,26.6892433 C44.1547233,26.6892433 45.1198793,25.7157642 45.1198793,24.5147844 L45.1198793,24.513261 C46.0493894,26.2647109 45.941143,28.4698418 44.7045148,30.1474556 L44.7045148,30.1479634 L45.6769208,31.5221585 C46.7176983,30.3109717 47.3472398,28.7303503 47.3472398,27.0000254 Z M39.191697,32.115082 L35.288278,26.4906881 C35.0358371,29.1509725 36.7641561,31.4852404 39.191697,32.115082 Z" id="password-hide-icon"></path>
                    </g>
                </g>
            </g>
        </g>
    </g>
</svg>