<?xml version="1.0" encoding="UTF-8"?>
<svg width="30px" height="18px" viewBox="0 0 30 18" version="1.1" xmlns="http://www.w3.org/2000/svg" xmlns:xlink="http://www.w3.org/1999/xlink">
    <!-- Generator: sketchtool 52.2 (67145) - http://www.bohemiancoding.com/sketch -->
    <title>77EB1A43-6C15-40AA-86BA-3E5DBCC3EA33</title>
    <desc>Created with sketchtool.</desc>
    <g id="pages" stroke="none" stroke-width="1" fill="none" fill-rule="evenodd">
        <g id="Sign-in-screen-(existing-user)" transform="translate(-1134.000000, -440.000000)" fill="#0DA4C5" fill-rule="nonzero">
            <g id="inputs" transform="translate(625.000000, 161.000000)">
                <g id="input" transform="translate(0.000000, 234.000000)">
                    <g id="button" transform="translate(483.000000, 27.000000)">
                        <path d="M55.6538287,25.808038 C52.7171149,21.1279402 47.2400929,18 40.9999993,18 C34.7573015,18 29.2814774,21.1301413 26.3461699,25.808038 C25.88461,26.5435845 25.88461,27.4564644 26.3461699,28.1920109 C29.2828837,32.8720598 34.7599057,36 40.9999993,36 C47.2426971,36 52.7185212,32.8698587 55.6538287,28.191962 C56.1153904,27.4564335 56.1153904,26.5435665 55.6538287,25.808038 Z M40.9999993,33.6521739 C37.0853184,33.6521739 33.9166779,30.6769402 33.9166779,27 C33.9166779,23.3235978 37.0846934,20.3478261 40.9999993,20.3478261 C44.9146802,20.3478261 48.0833207,23.3230109 48.0833207,27 C48.0833207,30.6764022 44.9153052,33.6521739 40.9999993,33.6521739 Z M46.4166568,27 C46.4166568,29.8094674 43.9915567,32.0869565 40.9999993,32.0869565 C38.0084419,32.0869565 35.5833418,29.8094674 35.5833418,27 C35.5833418,26.1338478 35.8141226,25.3184185 36.2206324,24.6045815 L36.2205803,24.6061467 C36.2205803,25.7629891 37.2191724,26.70075 38.4509932,26.70075 C39.682814,26.70075 40.6814061,25.7629402 40.6814061,24.6061467 C40.6814061,23.4493043 39.682814,22.5114946 38.4509932,22.5114946 L38.4493265,22.5115435 C39.2094294,22.1297772 40.0777092,21.9130435 40.9999993,21.9130435 C43.9915567,21.9130435 46.4166568,24.1905326 46.4166568,27 Z" id="password-icon"></path>
                    </g>
                </g>
            </g>
        </g>
    </g>
</svg>