<?xml version="1.0" encoding="UTF-8"?>
<svg width="253px" height="658px" viewBox="0 0 253 658" version="1.1" xmlns="http://www.w3.org/2000/svg" xmlns:xlink="http://www.w3.org/1999/xlink">
    <!-- Generator: sketchtool 52.3 (67297) - http://www.bohemiancoding.com/sketch -->
    <title>121BC394-C674-4FF4-A5B6-B77491955EE9</title>
    <desc>Created with sketchtool.</desc>
    <g id="pages" stroke="none" stroke-width="1" fill="none" fill-rule="evenodd">
        <g id="Chapter-2-(medication-questions)" transform="translate(-1347.000000, -215.000000)" fill="#DFEFF3" fill-rule="nonzero">
            <path d="M1880,294.691111 L1880,266.177778 C1880,237.664444 1856.11204,215 1827.7451,215 L1399.2549,215 C1370.14146,215 1347,238.395556 1347,266.177778 L1347,293.96 C1347,321.011111 1367.90196,342.944444 1394.77591,345.137778 C1390.29692,352.448889 1385.07143,360.491111 1379.84594,369.995556 C1375.36695,378.768889 1351.47899,423.366667 1351.47899,442.375556 L1351.47899,774.3 C1351.47899,829.133333 1397.01541,873 1452.2563,873 L1775.4902,873 C1830.73109,873 1876.26751,828.402222 1876.26751,774.3 L1876.26751,442.375556 C1876.26751,423.366667 1852.37955,378.768889 1847.90056,369.995556 C1842.67507,359.76 1837.44958,351.717778 1832.97059,345.137778 C1859.09804,342.944444 1880,321.011111 1880,294.691111 Z M1776.23669,628.808889 L1733.68627,628.808889 L1733.68627,670.482222 C1733.68627,680.717778 1725.47479,688.76 1715.02381,688.76 C1704.57283,688.76 1696.36134,680.717778 1696.36134,670.482222 L1696.36134,628.808889 L1653.81092,628.808889 C1643.35994,628.808889 1635.14846,620.766667 1635.14846,610.531111 C1635.14846,600.295556 1643.35994,592.253333 1653.81092,592.253333 L1696.36134,592.253333 L1696.36134,550.58 C1696.36134,540.344444 1704.57283,532.302222 1715.02381,532.302222 C1725.47479,532.302222 1733.68627,540.344444 1733.68627,550.58 L1733.68627,592.253333 L1776.23669,592.253333 C1786.68768,592.253333 1794.89916,600.295556 1794.89916,610.531111 C1795.64566,620.766667 1786.68768,628.808889 1776.23669,628.808889 Z M1835.95658,774.3 C1835.95658,807.2 1809.08263,833.52 1775.4902,833.52 L1452.2563,833.52 C1418.66387,833.52 1391.78992,807.2 1391.78992,774.3 L1391.78992,750.904444 L1835.95658,750.904444 L1835.95658,774.3 Z M1835.95658,443.106667 L1835.95658,473.813333 L1391.04342,473.813333 L1391.04342,443.106667 C1393.28291,427.022222 1426.87535,363.415556 1441.05882,349.524444 L1785.94118,349.524444 C1800.12465,362.684444 1833.71709,427.022222 1835.95658,443.106667 Z M1839.68908,294.691111 C1839.68908,301.271111 1834.46359,306.388889 1827.7451,306.388889 L1399.2549,306.388889 C1392.53641,306.388889 1387.31092,301.271111 1387.31092,294.691111 L1387.31092,266.177778 C1387.31092,259.597778 1392.53641,254.48 1399.2549,254.48 L1827.7451,254.48 C1834.46359,254.48 1839.68908,259.597778 1839.68908,266.177778 L1839.68908,294.691111 Z" id="pill-bg-icon"></path>
        </g>
    </g>
</svg>