<?xml version="1.0" encoding="UTF-8"?>
<svg width="30px" height="30px" viewBox="0 0 30 30" version="1.1" xmlns="http://www.w3.org/2000/svg" xmlns:xlink="http://www.w3.org/1999/xlink">
    <!-- Generator: sketchtool 52.3 (67297) - http://www.bohemiancoding.com/sketch -->
    <title>59F15FEC-6E6E-4B5B-89A7-B523281CC2A4</title>
    <desc>Created with sketchtool.</desc>
    <g id="pages" stroke="none" stroke-width="1" fill="none" fill-rule="evenodd">
        <g id="Help-drop-down" transform="translate(-1079.000000, -230.000000)" fill="#0E849E" fill-rule="nonzero">
            <path d="M1109,245 C1109,253.286109 1102.28369,260 1094,260 C1085.71631,260 1079,253.286109 1079,245 C1079,236.71873 1085.71631,230 1094,230 C1102.28369,230 1109,236.71873 1109,245 Z M1094.40252,234.959677 C1091.10633,234.959677 1089.00403,236.348206 1087.35319,238.816008 C1087.13931,239.135726 1087.21087,239.566915 1087.5174,239.799355 L1089.61613,241.390685 C1089.93095,241.629415 1090.3795,241.572621 1090.62409,241.262339 C1091.70458,239.891895 1092.44544,239.097198 1094.09,239.097198 C1095.32562,239.097198 1096.85399,239.89244 1096.85399,241.090625 C1096.85399,241.996431 1096.10623,242.461613 1094.88621,243.145625 C1093.46339,243.943226 1091.58065,244.935948 1091.58065,247.419355 L1091.58065,247.66129 C1091.58065,248.062117 1091.90563,248.387097 1092.30645,248.387097 L1095.69355,248.387097 C1096.09437,248.387097 1096.41935,248.062117 1096.41935,247.66129 L1096.41935,247.580665 C1096.41935,245.859173 1101.45077,245.7875 1101.45077,241.129032 C1101.45077,237.620847 1097.81175,234.959677 1094.40252,234.959677 Z M1094,249.959677 C1092.46583,249.959677 1091.21774,251.207762 1091.21774,252.741935 C1091.21774,254.276048 1092.46583,255.524194 1094,255.524194 C1095.53417,255.524194 1096.78226,254.276048 1096.78226,252.741935 C1096.78226,251.207762 1095.53417,249.959677 1094,249.959677 Z" id="faq-header-icon"></path>
        </g>
    </g>
</svg>