<?xml version="1.0" encoding="UTF-8"?>
<svg width="38px" height="38px" viewBox="0 0 38 38" version="1.1" xmlns="http://www.w3.org/2000/svg" xmlns:xlink="http://www.w3.org/1999/xlink">
    <!-- Generator: sketchtool 52.3 (67297) - http://www.bohemiancoding.com/sketch -->
    <title>DA6EEBEC-C040-485D-BB22-1D4F50C72929</title>
    <desc>Created with sketchtool.</desc>
    <g id="pages" stroke="none" stroke-width="1" fill="none" fill-rule="evenodd">
        <g id="Chapter-5---Congrats-and-Schedule-Appt" transform="translate(-570.000000, -367.000000)" fill="#FFFFFF">
            <g id="button" transform="translate(530.000000, 341.000000)">
                <path d="M78,45 C78,34.5 69.5,26 59,26 C48.5,26 40,34.5 40,45 C40,55.5 48.5,64 59,64 C69.5,64 78,55.5 78,45 Z M67.0714286,47.2857143 C64.9285714,45.1428571 63.0714286,47.6428571 61.7857143,48.9285714 C59.0714286,47.5 56.2857143,45 55.0714286,42.2142857 C59,38.6428571 58.2142857,38.2142857 53.7857143,34 C51.5714286,31.8571429 49.7857143,34.4285714 48.4285714,35.7857143 C47.7142857,36.5 47.3571429,37.3571429 47.2857143,38.2857143 C46.5714286,44.7142857 56.7857143,56.3571429 64.9285714,56.8571429 C67.3571429,57 68.2857143,55.6428571 70,53.8571429 C71.0714286,52.7857143 71.0714286,51.2857143 69.9285714,50.2142857 L67.0714286,47.2857143 Z" id="schedule-button-icon"></path>
            </g>
        </g>
    </g>
</svg>