<?xml version="1.0" encoding="UTF-8"?>
<svg width="52px" height="43px" viewBox="0 0 52 43" version="1.1" xmlns="http://www.w3.org/2000/svg" xmlns:xlink="http://www.w3.org/1999/xlink">
    <!-- Generator: sketchtool 52.5 (67469) - http://www.bohemiancoding.com/sketch -->
    <title>60D37A6F-D00D-4B74-ADDC-47F1901CFB90</title>
    <desc>Created with sketchtool.</desc>
    <g id="pages" stroke="none" stroke-width="1" fill="none" fill-rule="evenodd">
        <g id="Chapter-4---Health-Status" transform="translate(-774.000000, -1093.000000)" fill="#A0ACB8" fill-rule="nonzero">
            <g id="step" transform="translate(0.000000, 975.000000)">
                <g id="steps" transform="translate(200.000000, 65.000000)">
                    <g id="icon" transform="translate(548.000000, 22.000000)">
                        <path d="M43.5096367,50.5456201 C41.9336133,55.786402 42.746785,61.6153251 45.9518357,66.2269171 C45.4821821,66.2807516 45.0212506,66.3123793 44.5737377,66.3258379 C40.7185522,66.4361985 37.0378095,65.290198 33.932057,63.0123286 C29.9963594,60.1254572 27.5206137,55.8126463 26.9845377,51.0180172 L43.5096367,50.5456201 Z M47.0971197,66.3009395 C42.8111947,60.6577452 42.4643219,52.8645382 46.0913899,46.8667096 L73.7761307,67.1737302 C67.9752372,73.8693877 57.8978117,75.1075796 50.6322698,69.7786438 C49.2937569,68.7968383 48.1035204,67.6266124 47.0971197,66.3009395 Z M70.956196,41.9038479 C78.2217379,47.2334567 80.0996816,57.2406046 75.4970758,64.8157821 L47.8116642,44.5087615 C50.4826516,41.420011 54.1150871,39.399201 58.1930226,38.7747216 C62.7231675,38.0789115 67.2566671,39.1905926 70.956196,41.9038479 Z M46.1866625,45.1265116 C45.5761128,45.9629641 45.0534554,46.8445029 44.6052716,47.7543048 L26.9,48.0974993 C27.1207372,44.0282892 28.7477516,40.2060445 31.5690282,37.2101584 C34.7271135,33.8576192 38.9976071,31.9390946 43.5948453,31.8072002 C47.4466762,31.6975126 51.1240643,32.8428401 54.2284749,35.1207095 C55.3737588,35.9605266 56.4103515,36.9362757 57.3167831,38.0277688 C52.8309198,38.9039242 48.9005897,41.4045336 46.1866625,45.1265116 Z" id="step3-grey-icon"></path>
                    </g>
                </g>
            </g>
        </g>
    </g>
</svg>