<?xml version="1.0" encoding="UTF-8"?>
<svg width="52px" height="60px" viewBox="0 0 52 60" version="1.1" xmlns="http://www.w3.org/2000/svg" xmlns:xlink="http://www.w3.org/1999/xlink">
    <!-- Generator: sketchtool 52.3 (67297) - http://www.bohemiancoding.com/sketch -->
    <title>555630DF-1967-43C6-950B-774609990E28</title>
    <desc>Created with sketchtool.</desc>
    <g id="pages" stroke="none" stroke-width="1" fill="none" fill-rule="evenodd">
        <g id="Chapter-5---Congrats-and-Schedule-Appt" transform="translate(-1314.000000, -1570.000000)" fill="#0DA4C5" fill-rule="nonzero">
            <g id="step" transform="translate(0.000000, 1464.000000)">
                <g id="steps" transform="translate(200.000000, 65.000000)">
                    <g id="icon" transform="translate(1066.000000, 0.000000)">
                        <path d="M98.6071429,59.75 L49.3928571,59.75 C48.6267857,59.75 48,59.1171875 48,58.34375 L48,54.125 C48,51.0195312 50.4955357,48.5 53.5714286,48.5 L59.1428571,48.5 L59.1428571,42.40625 C59.1428571,41.6328125 59.7696429,41 60.5357143,41 L65.1785714,41 C65.9446429,41 66.5714286,41.6328125 66.5714286,42.40625 L66.5714286,48.5 L81.4285714,48.5 L81.4285714,42.40625 C81.4285714,41.6328125 82.0553571,41 82.8214286,41 L87.4642857,41 C88.2303571,41 88.8571429,41.6328125 88.8571429,42.40625 L88.8571429,48.5 L94.4285714,48.5 C97.5044643,48.5 100,51.0195312 100,54.125 L100,58.34375 C100,59.1171875 99.3732143,59.75 98.6071429,59.75 Z M49.3928571,63.5 L98.6071429,63.5 C99.3732143,63.5 100,64.1328125 100,64.90625 L100,95.375 C100,98.4804688 97.5044643,101 94.4285714,101 L53.5714286,101 C50.4955357,101 48,98.4804688 48,95.375 L48,64.90625 C48,64.1328125 48.6267857,63.5 49.3928571,63.5 Z M62.8571429,87.40625 C62.8571429,86.6328125 62.2303571,86 61.4642857,86 L56.8214286,86 C56.0553571,86 55.4285714,86.6328125 55.4285714,87.40625 L55.4285714,92.09375 C55.4285714,92.8671875 56.0553571,93.5 56.8214286,93.5 L61.4642857,93.5 C62.2303571,93.5 62.8571429,92.8671875 62.8571429,92.09375 L62.8571429,87.40625 Z M62.8571429,72.40625 C62.8571429,71.6328125 62.2303571,71 61.4642857,71 L56.8214286,71 C56.0553571,71 55.4285714,71.6328125 55.4285714,72.40625 L55.4285714,77.09375 C55.4285714,77.8671875 56.0553571,78.5 56.8214286,78.5 L61.4642857,78.5 C62.2303571,78.5 62.8571429,77.8671875 62.8571429,77.09375 L62.8571429,72.40625 Z M77.7142857,87.40625 C77.7142857,86.6328125 77.0875,86 76.3214286,86 L71.6785714,86 C70.9125,86 70.2857143,86.6328125 70.2857143,87.40625 L70.2857143,92.09375 C70.2857143,92.8671875 70.9125,93.5 71.6785714,93.5 L76.3214286,93.5 C77.0875,93.5 77.7142857,92.8671875 77.7142857,92.09375 L77.7142857,87.40625 Z M77.7142857,72.40625 C77.7142857,71.6328125 77.0875,71 76.3214286,71 L71.6785714,71 C70.9125,71 70.2857143,71.6328125 70.2857143,72.40625 L70.2857143,77.09375 C70.2857143,77.8671875 70.9125,78.5 71.6785714,78.5 L76.3214286,78.5 C77.0875,78.5 77.7142857,77.8671875 77.7142857,77.09375 L77.7142857,72.40625 Z M92.5714286,87.40625 C92.5714286,86.6328125 91.9446429,86 91.1785714,86 L86.5357143,86 C85.7696429,86 85.1428571,86.6328125 85.1428571,87.40625 L85.1428571,92.09375 C85.1428571,92.8671875 85.7696429,93.5 86.5357143,93.5 L91.1785714,93.5 C91.9446429,93.5 92.5714286,92.8671875 92.5714286,92.09375 L92.5714286,87.40625 Z M92.5714286,72.40625 C92.5714286,71.6328125 91.9446429,71 91.1785714,71 L86.5357143,71 C85.7696429,71 85.1428571,71.6328125 85.1428571,72.40625 L85.1428571,77.09375 C85.1428571,77.8671875 85.7696429,78.5 86.5357143,78.5 L91.1785714,78.5 C91.9446429,78.5 92.5714286,77.8671875 92.5714286,77.09375 L92.5714286,72.40625 Z" id="step5-icon"></path>
                    </g>
                </g>
            </g>
        </g>
    </g>
</svg>