<?xml version="1.0" encoding="UTF-8"?>
<svg width="63px" height="59px" viewBox="0 0 63 59" version="1.1" xmlns="http://www.w3.org/2000/svg" xmlns:xlink="http://www.w3.org/1999/xlink">
    <!-- Generator: sketchtool 52.5 (67469) - http://www.bohemiancoding.com/sketch -->
    <title>B19814B9-3F6C-4D69-AC01-D65034FE9159</title>
    <desc>Created with sketchtool.</desc>
    <g id="pages" stroke="none" stroke-width="1" fill="none" fill-rule="evenodd">
        <g id="Chapter-4---Health-Status" transform="translate(-1039.000000, -1086.000000)" fill="#0DA4C5" fill-rule="nonzero">
            <g id="step" transform="translate(0.000000, 975.000000)">
                <g id="steps" transform="translate(200.000000, 65.000000)">
                    <g id="icon" transform="translate(797.000000, 0.000000)">
                        <path d="M99.2837941,51.6596058 C95.6424046,48.0801846 90.8105609,46.0448274 85.6986103,46.0448274 C81.2869268,46.0448274 76.9452701,47.5187067 73.5139608,50.3260959 C65.180781,43.5883619 52.9961316,44.851687 46.2735664,53.2036698 C41.3016692,59.379926 40.601402,68.0828324 44.5228984,74.9609359 L53.906479,74.9609359 L63.6401932,58.0464161 L70.0126248,77.4174014 L77.1553503,64.7139654 L83.1776483,75.0311206 L88.9198394,75.0311206 C90.1102937,75.0311206 91.020641,75.9435221 91.020641,77.1366625 C91.020641,78.3298029 90.1102937,79.2422044 88.9198394,79.2422044 L80.7967398,79.2422044 L77.225377,73.2063176 L68.962224,87.7345566 L62.5197657,68.2933866 L56.2873875,79.1720196 L47.7441275,79.1720196 L73.5139608,105 L99.4238475,79.0316502 C106.916707,71.4516994 106.84668,59.1693718 99.2837941,51.6596058 Z" id="step4-icon"></path>
                    </g>
                </g>
            </g>
        </g>
    </g>
</svg>