<?xml version="1.0" encoding="UTF-8"?>
<svg width="45px" height="42px" viewBox="0 0 45 42" version="1.1" xmlns="http://www.w3.org/2000/svg" xmlns:xlink="http://www.w3.org/1999/xlink">
    <!-- Generator: sketchtool 52.3 (67297) - http://www.bohemiancoding.com/sketch -->
    <title>29AEFEF9-AE98-4328-AAB7-C5CF1A43CF62</title>
    <desc>Created with sketchtool.</desc>
    <g id="pages" stroke="none" stroke-width="1" fill="none" fill-rule="evenodd">
        <g id="Chapter-5---Congrats-and-Schedule-Appt" transform="translate(-1057.000000, -1584.000000)" fill="#A0ACB8" fill-rule="nonzero">
            <g id="step" transform="translate(0.000000, 1464.000000)">
                <g id="steps" transform="translate(200.000000, 65.000000)">
                    <g id="icon" transform="translate(827.000000, 21.000000)">
                        <path d="M70.4986559,38.161724 C67.9496832,35.6561292 64.5673926,34.2313792 60.9890272,34.2313792 C57.9008488,34.2313792 54.8616891,35.2630947 52.4597726,37.2282671 C46.6265467,32.5118533 38.0972921,33.3961809 33.3914965,39.2425689 C29.9111685,43.5659482 29.4209814,49.6579827 32.1660289,54.4726551 L38.7345353,54.4726551 L45.5481352,42.6324913 L50.0088373,56.192181 L55.0087452,47.2997758 L59.2243538,54.5217844 L63.2438876,54.5217844 C64.0772056,54.5217844 64.7144487,55.1604655 64.7144487,55.9956637 C64.7144487,56.830862 64.0772056,57.4695431 63.2438876,57.4695431 L57.5577179,57.4695431 L55.0577639,53.2444224 L49.2735568,63.4141896 L44.763836,49.8053706 L40.4011712,57.4204137 L34.4208893,57.4204137 L52.4597726,75.5 L70.5966933,57.3221551 C75.8416947,52.0161896 75.792676,43.4185603 70.4986559,38.161724 Z" id="step4-grey-icon"></path>
                    </g>
                </g>
            </g>
        </g>
    </g>
</svg>