<?xml version="1.0" encoding="UTF-8"?>
<svg width="73px" height="59px" viewBox="0 0 73 59" version="1.1" xmlns="http://www.w3.org/2000/svg" xmlns:xlink="http://www.w3.org/1999/xlink">
    <!-- Generator: sketchtool 52.3 (67297) - http://www.bohemiancoding.com/sketch -->
    <title>A1898753-A868-422C-8FB0-E5BEFEF65464</title>
    <desc>Created with sketchtool.</desc>
    <g id="pages" stroke="none" stroke-width="1" fill="none" fill-rule="evenodd">
        <g id="Chapter-3-(Other-Medications)" transform="translate(-756.000000, -1042.000000)" fill="#0DA4C5" fill-rule="nonzero">
            <g id="step" transform="translate(0.000000, 933.000000)">
                <g id="steps" transform="translate(200.000000, 65.000000)">
                    <g id="icon" transform="translate(291.000000, 0.000000)">
                        <path d="M288.728052,70.7794573 C286.47659,78.2662886 287.638264,86.5933216 292.216908,93.1813102 C291.545974,93.2582165 290.887501,93.303399 290.248197,93.3226256 C284.740789,93.4802835 279.482585,91.84314 275.045796,88.5890409 C269.423371,84.4649389 265.886591,78.3037804 265.120768,71.4543103 L288.728052,70.7794573 Z M293.853028,93.2870564 C287.730278,85.2253502 287.234746,74.0921975 292.416271,65.5238709 L331.965901,94.5339003 C323.67891,104.099125 309.282588,105.867971 298.903243,98.2552054 C296.991081,96.8526262 295.290743,95.1808748 293.853028,93.2870564 Z M327.937423,58.4340685 C338.316768,66.0477952 340.999545,80.3437209 334.424394,91.165403 L294.873806,62.1553735 C298.689502,57.7428728 303.878696,54.8560014 309.704318,53.963888 C316.175954,52.9698736 322.652382,54.5579894 327.937423,58.4340685 Z M292.552375,63.0378737 C291.680161,64.2328058 290.933508,65.492147 290.293245,66.791864 L265,67.2821418 C265.315339,61.4689845 267.639645,56.008635 271.67004,51.7287977 C276.181591,46.9394559 282.282296,44.1987066 288.849779,44.0102861 C294.352395,43.8535894 299.605806,45.4897716 304.040678,48.7438707 C305.676798,49.9436095 307.157645,51.3375367 308.452547,52.8968126 C302.044171,54.1484632 296.429414,57.7207622 292.552375,63.0378737 Z" id="step3-icon"></path>
                    </g>
                </g>
            </g>
        </g>
    </g>
</svg>