<?xml version="1.0" encoding="UTF-8"?>
<svg width="37px" height="45px" viewBox="0 0 37 45" version="1.1" xmlns="http://www.w3.org/2000/svg" xmlns:xlink="http://www.w3.org/1999/xlink">
    <!-- Generator: sketchtool 52.3 (67297) - http://www.bohemiancoding.com/sketch -->
    <title>07DE25E2-223C-456F-A817-3921FC4ACD71</title>
    <desc>Created with sketchtool.</desc>
    <g id="pages" stroke="none" stroke-width="1" fill="none" fill-rule="evenodd">
        <g id="Chapter-3-(Other-Medications)" transform="translate(-503.000000, -1050.000000)" fill="#0DA4C5" fill-rule="nonzero">
            <g id="step" transform="translate(0.000000, 933.000000)">
                <g id="steps" transform="translate(200.000000, 65.000000)">
                    <g id="icon" transform="translate(269.000000, 22.000000)">
                        <path d="M70.3,35.441 L70.3,33.53 C70.3,31.619 68.7,30.1 66.8,30.1 L38.1,30.1 C36.15,30.1 34.6,31.668 34.6,33.53 L34.6,35.392 C34.6,37.205 36,38.675 37.8,38.822 C37.5,39.312 37.15,39.851 36.8,40.488 C36.5,41.076 34.9,44.065 34.9,45.339 L34.9,67.585 C34.9,71.26 37.95,74.2 41.65,74.2 L63.3,74.2 C67,74.2 70.05,71.211 70.05,67.585 L70.05,45.339 C70.05,44.065 68.45,41.076 68.15,40.488 C67.8,39.802 67.45,39.263 67.15,38.822 C68.9,38.675 70.3,37.205 70.3,35.441 Z M63.35,57.834 L60.5,57.834 L60.5,60.627 C60.5,61.313 59.95,61.852 59.25,61.852 C58.55,61.852 58,61.313 58,60.627 L58,57.834 L55.15,57.834 C54.45,57.834 53.9,57.295 53.9,56.609 C53.9,55.923 54.45,55.384 55.15,55.384 L58,55.384 L58,52.591 C58,51.905 58.55,51.366 59.25,51.366 C59.95,51.366 60.5,51.905 60.5,52.591 L60.5,55.384 L63.35,55.384 C64.05,55.384 64.6,55.923 64.6,56.609 C64.65,57.295 64.05,57.834 63.35,57.834 Z M67.35,67.585 C67.35,69.79 65.55,71.554 63.3,71.554 L41.65,71.554 C39.4,71.554 37.6,69.79 37.6,67.585 L37.6,66.017 L67.35,66.017 L67.35,67.585 Z M67.35,45.388 L67.35,47.446 L37.55,47.446 L37.55,45.388 C37.7,44.31 39.95,40.047 40.9,39.116 L64,39.116 C64.95,39.998 67.2,44.31 67.35,45.388 Z M67.6,35.441 C67.6,35.882 67.25,36.225 66.8,36.225 L38.1,36.225 C37.65,36.225 37.3,35.882 37.3,35.441 L37.3,33.53 C37.3,33.089 37.65,32.746 38.1,32.746 L66.8,32.746 C67.25,32.746 67.6,33.089 67.6,33.53 L67.6,35.441 Z" id="step2-grey-icon"></path>
                    </g>
                </g>
            </g>
        </g>
    </g>
</svg>